<svg xmlns="http://www.w3.org/2000/svg" width="33" height="20" viewBox="0 0 33 20">
    <path fill="#FF7143" fill-rule="nonzero" d="M23.986 13.518c-2.02 0-3.657-1.574-3.657-3.519 0-1.943 1.637-3.517 3.657-3.517 2.021 0 3.658 1.574 3.658 3.517 0 1.945-1.637 3.519-3.658 3.519m-14.97.001c-2.023 0-3.66-1.574-3.66-3.52 0-1.944 1.637-3.519 3.66-3.519 2.021 0 3.655 1.575 3.655 3.52s-1.637 3.52-3.655 3.52M30.925 0H1.989C.91 0 0 .875 0 1.956v16.088C0 19.124.91 20 2.032 20h7.905c.847 0 1.573-.5 1.878-1.209l2.299-5.342c.388-.9 1.31-1.535 2.386-1.535s1.999.634 2.386 1.535l2.299 5.342A2.02 2.02 0 0 0 23.02 20h7.904C32.091 20 33 19.125 33 18.044V1.956C33 .876 32.09 0 30.925 0"/>
</svg>
