<svg xmlns="http://www.w3.org/2000/svg" width="192" height="192" viewBox="0 0 192 192">
    <defs>
        <radialGradient id="a" cx="15.102%" cy="15.102%" r="99.341%" fx="15.102%" fy="15.102%">
            <stop offset="0%" stop-color="#FFF"/>
            <stop offset="100%" stop-color="#FFF" stop-opacity="0"/>
        </radialGradient>
    </defs>
    <g fill="none" fill-rule="evenodd">
        <path d="M0 0h192v192H0z"/>
        <g fill-rule="nonzero">
            <path fill="#255FDB" d="M68.69 114.33c-30-39.69-60.8-9.53-52.76 18.21a88.06 88.06 0 0 0 154 11.25c-23.19 21.72-65.3 18.09-101.24-29.46z"/>
            <path fill="#4285F4" d="M95.51 87C54.25 24.42 8 57.77 8 96a87.56 87.56 0 0 0 8 36.68c-5.49-25.91 24.28-45.89 52-8.7 40.25 54 79.75 44.5 101.85 19.93a87.64 87.64 0 0 0 13.42-36.12v.17C173.78 137.4 131.9 142.19 95.51 87z"/>
            <path fill="#91BFFF" d="M123.79 59C93.15 8.45 54.3 13 28 40.09A87.71 87.71 0 0 0 8 96c2.75-37 47.5-62.75 88 0 36 55.85 80.85 41.3 87.23 12.12v-.28a74.77 74.77 0 0 0 .71-12v-4C168.35 103 147.85 98.69 123.79 59z"/>
            <path fill="#C4E1FF" d="M124 68c28.06 45.11 52.25 33.57 60 23.92A87.72 87.72 0 0 0 180.75 72c-13.08.27-16.13-1.91-29-21.51C132.08 20.35 107.3 0 64 14a88.49 88.49 0 0 0-36 26.13C57.75 12.75 94.25 20.18 124 68z"/>
            <path fill="#F5F5F5" d="M149.83 54.37C162.66 74 170.47 75 180.75 72A88.14 88.14 0 0 0 64 14c38.68-12.2 66.11 10.22 85.83 40.37z"/>
        </g>
        <g fill-opacity=".2" fill-rule="nonzero">
            <path fill="#FFF" d="M96 9c48.406 0 87.725 39.094 88 87.5V96c0-48.601-39.399-88-88-88S8 47.399 8 96v.5C8.275 48.094 47.594 9 96 9z"/>
            <path fill="#1A237E" d="M96 183c-48.406 0-87.725-39.094-88-87.5v.5a88 88 0 1 0 176 0v-.5c-.275 48.406-39.594 87.5-88 87.5z"/>
        </g>
        <circle cx="96" cy="96" r="88" fill="url(#a)" fill-opacity=".1" fill-rule="nonzero"/>
    </g>
</svg>
