<?xml version="1.0" encoding="UTF-8"?>
<svg width="56px" height="56px" viewBox="0 0 56 56" version="1.1" xmlns="http://www.w3.org/2000/svg" xmlns:xlink="http://www.w3.org/1999/xlink">
    <title>Unity Icon</title>
    <defs>
        <linearGradient x1="-7.79188368%" y1="-11.5375%" x2="106.873372%" y2="107.156875%" id="linearGradient-1">
            <stop stop-color="#1DE9B6" offset="0%"></stop>
            <stop stop-color="#2979FF" offset="100%"></stop>
        </linearGradient>
    </defs>
    <g id="Designs" stroke="none" stroke-width="1" fill="none" fill-rule="evenodd">
        <g id="05_Developers" transform="translate(-520.000000, -892.000000)">
            <g id="SDKs" transform="translate(40.000000, 822.000000)">
                <g id="Unity-SDK" transform="translate(480.000000, 70.000000)">
                    <g id="Unity-Icon">
                        <path d="M27.5546526,29.2701152 C27.4438316,29.0833508 27.0963368,28.9390995 26.8578947,28.9376335 C23.6243368,28.9159372 20.3893053,28.921801 17.1554526,28.9250262 C17.0030737,28.9250262 16.8512842,28.9561047 16.6488,28.9786806 C16.7437053,29.1012356 16.7867368,29.1710157 16.8433263,29.2284817 C18.9347789,31.3459267 21.0232842,33.4654241 23.1253474,35.5723141 C23.2895158,35.737089 23.5356211,35.856712 23.7646316,35.9165236 C25.7187368,36.4278534 27.6769684,36.9215916 29.6346105,37.4191414 C30.6355368,37.6736335 31.6361684,37.9269529 32.7172632,38.2013822 C32.6465263,38.0219476 32.6261895,37.9424921 32.5866947,37.8738848 C30.9161263,35.0020524 29.2508632,32.1275812 27.5546526,29.2701152 L27.5546526,29.2701152 Z" id="Shape" fill="#22B7D7"></path>
                        <path d="M35.5567579,18.7034136 C35.5169684,18.5612147 35.4441684,18.4283979 35.3681263,18.2480838 C35.2779368,18.3718115 35.2228211,18.4339686 35.1821474,18.5037487 C33.5183579,21.3550576 31.8492632,24.2031414 30.2087579,27.0682304 C30.0964632,27.2637906 30.1112,27.6387853 30.2261474,27.8399162 C31.8362947,30.650178 33.4741474,33.4449005 35.1066947,36.2428482 C35.1774316,36.3645236 35.2643789,36.4768168 35.3687158,36.6295707 C35.4273684,36.5128796 35.4745263,36.4463246 35.4954526,36.3721466 C36.3083368,33.5006073 37.1244632,30.6293613 37.9190737,27.7531309 C37.9856842,27.5109529 37.9435368,27.2148272 37.8742737,26.9653194 C37.1114947,24.2084188 36.3336842,21.4562094 35.5567579,18.7034136 L35.5567579,18.7034136 Z" id="Shape" fill="#22B7D7"></path>
                        <path d="M28.0002947,0 C12.5360421,0 0,12.4704084 0,27.8534031 C0,43.2363979 12.5360421,55.7070995 28.0002947,55.7070995 C43.4639579,55.7070995 56,43.2363979 56,27.8534031 C56,12.4704084 43.4639579,0 28.0002947,0 L28.0002947,0 Z M38.8194947,27.822911 C39.2120842,28.5761257 39.6482947,29.3096963 40.1139789,30.0215707 C40.3745263,30.4211937 40.4087158,30.7827016 40.2825684,31.238911 C39.2512842,34.9736126 38.2450526,38.7147644 37.2323368,42.4541571 C37.2055158,42.5526702 37.1990316,42.6564607 37.1831158,42.7576126 L36.9322947,42.7576126 C36.7274526,42.6746387 36.5276211,42.5687958 36.3151158,42.5125026 C32.6954526,41.5478953 29.0704842,40.5991204 25.4573053,39.6119372 C25.1434105,39.5266178 24.8168421,39.2521885 24.6338105,38.9762932 C24.1536842,38.2500524 23.7764211,37.4575497 23.2998316,36.7292565 C23.1616,36.5184503 22.8332632,36.324356 22.5833263,36.3123351 C21.6678737,36.2695288 20.7482947,36.3214241 19.8313684,36.3038325 C19.6041263,36.2991414 19.3146947,36.2328796 19.1634947,36.0845236 C16.2853895,33.2560838 13.4229053,30.4112251 10.5592421,27.5675393 C10.5324211,27.5408586 10.5250526,27.4948272 10.4882105,27.4121466 C10.6108211,27.2781571 10.7408,27.1224712 10.8843368,26.9805654 C13.5732211,24.314555 16.268,21.6549948 18.9456842,18.9784293 C19.2516211,18.6726283 19.5554947,18.5421571 19.9855158,18.5588691 C20.8605895,18.5931728 21.7383158,18.6069529 22.6122105,18.5667853 C22.8468211,18.5559372 23.1595368,18.3773822 23.2853895,18.1800628 C23.7864421,17.3931309 24.2114526,16.5584084 24.7027789,15.764733 C24.8289263,15.5612565 25.0723789,15.3601257 25.2999158,15.2988482 C29.2184421,14.2424712 33.1422737,13.2086702 37.1406737,12.1499476 C37.2906947,12.6891309 37.4398316,13.217466 37.5839579,13.7475602 C38.4861474,17.0662199 39.3815579,20.3866387 40.2958316,23.7020733 C40.4084211,24.1113717 40.3845474,24.4409215 40.1475789,24.8059476 C39.6736421,25.5365864 39.2232842,26.2859895 38.8180211,27.0565026 C38.7107368,27.2608586 38.7119158,27.6162094 38.8194947,27.822911 L38.8194947,27.822911 Z" id="Shape" fill="url(#linearGradient-1)"></path>
                        <path d="M27.0662737,25.9332775 C27.2613895,25.9318115 27.5210526,25.6852356 27.6383579,25.4873298 C29.2514526,22.7509529 30.8448,20.0022618 32.4410947,17.255623 C32.5295158,17.1031623 32.6017263,16.9416126 32.7199158,16.7070576 C32.4923789,16.7495707 32.3526737,16.7674555 32.2179789,16.801466 C29.4327158,17.5101152 26.6468632,18.2129005 23.8672,18.9406073 C23.5636211,19.0200628 23.2435368,19.1895288 23.0236632,19.4088377 C21.0053053,21.4224921 19.0069895,23.4554974 17.0045474,25.4852775 C16.8866526,25.6051937 16.7890947,25.7447539 16.6178526,25.9526283 C20.1841684,25.9529215 23.6249263,25.9605445 27.0662737,25.9332775 L27.0662737,25.9332775 Z" id="Shape" fill="#22B7D7"></path>
                    </g>
                </g>
            </g>
        </g>
    </g>
</svg>
