<?xml version="1.0" encoding="UTF-8"?>
<svg width="56px" height="56px" viewBox="0 0 56 56" version="1.1" xmlns="http://www.w3.org/2000/svg" xmlns:xlink="http://www.w3.org/1999/xlink">
    <title>Android Icon</title>
    <defs>
        <linearGradient x1="-7.79188368%" y1="-11.5375%" x2="106.873372%" y2="107.156875%" id="linearGradient-1">
            <stop stop-color="#1DE9B6" offset="0%"></stop>
            <stop stop-color="#2979FF" offset="100%"></stop>
        </linearGradient>
    </defs>
    <g id="Designs" stroke="none" stroke-width="1" fill="none" fill-rule="evenodd">
        <g id="05_Developers" transform="translate(-40.000000, -892.000000)">
            <g id="SDKs" transform="translate(40.000000, 822.000000)">
                <g id="Android-SDK" transform="translate(0.000000, 70.000000)">
                    <g id="Android-Icon">
                        <circle id="Oval" fill="#1DE9B6" cx="23.7879158" cy="16.0787789" r="1"></circle>
                        <circle id="Oval" fill="#1DE9B6" cx="32.2120842" cy="16.0787789" r="1"></circle>
                        <path d="M28,0 C12.5360421,0 0,12.5360421 0,28 C0,43.4639579 12.5360421,56 28,56 C43.4639579,56 56,43.4639579 56,28 C56,12.5360421 43.4639579,0 28,0 L28,0 Z M18.9857684,18.1165895 C19.5599158,15.8538947 21.1794947,13.944 23.3685053,12.8101474 L21.9484632,10.1902316 C21.8609263,10.0290105 21.9207579,9.82682105 22.0822737,9.73957895 C22.2437895,9.65204211 22.4456842,9.71216842 22.5332211,9.87338947 L23.9700632,12.5245474 C25.1926316,11.9946105 26.5661053,11.6969263 28.0170947,11.6969263 C29.4574737,11.6969263 30.8206316,11.9901895 32.0364211,12.5127579 L33.4664842,9.87338947 C33.5546105,9.71216842 33.7565053,9.65204211 33.9174316,9.73957895 C34.0789474,9.82682105 34.1387789,10.0290105 34.0512421,10.1902316 L32.6385684,12.7962947 C34.9354526,13.9767158 36.6095579,16.0095158 37.1162105,18.4092632 C37.1728,18.6804211 37.2155368,18.9562947 37.2423579,19.236 L37.2423579,20.2224842 L18.7635368,20.2224842 C18.76,20.1293474 18.7576421,20.0359158 18.7576421,19.9418947 C18.7576421,19.3146947 18.8363368,18.7037053 18.9857684,18.1165895 L18.9857684,18.1165895 Z M17.2724632,26.8410947 L17.2724632,28.4777684 L17.2724632,31.9571368 C17.2724632,33.0871579 16.3561263,34.0023158 15.2261053,34.0023158 C14.0960842,34.0023158 13.1800421,33.0871579 13.1797474,31.9571368 L13.1797474,28.4777684 L13.1797474,26.8410947 L13.1797474,23.3617263 C13.1800421,22.232 14.0957895,21.3162526 15.2261053,21.3162526 C16.3564211,21.3162526 17.2724632,22.232 17.2724632,23.3617263 L17.2724632,26.8410947 L17.2724632,26.8410947 Z M37.2591579,35.1629895 C37.2591579,36.2888842 36.3389895,37.2099368 35.2133895,37.2099368 L33.4882947,37.2099368 L33.4882947,38.4316211 L33.4882947,41.9115789 C33.4877053,43.0410105 32.5722526,43.9570526 31.4425263,43.9570526 C30.3125053,43.9570526 29.3964632,43.0410105 29.3958737,41.9115789 L29.3958737,38.4316211 L29.3958737,37.2099368 L26.6035368,37.2099368 L26.6035368,38.4316211 L26.6035368,41.9115789 C26.6032421,43.0410105 25.6872,43.9570526 24.5571789,43.9570526 C23.4271579,43.9570526 22.5111158,43.0410105 22.5105263,41.9115789 L22.5105263,38.4316211 L22.5105263,37.2099368 L20.7860211,37.2099368 C19.6607158,37.2099368 18.7399579,36.2888842 18.7399579,35.1629895 L18.7399579,21.6734737 L18.8416421,21.6734737 L37.2252632,21.6734737 L37.2585684,21.6734737 L37.2585684,35.1629895 L37.2591579,35.1629895 L37.2591579,35.1629895 Z M42.8202526,26.8413895 L42.8202526,28.4777684 L42.8202526,31.9571368 C42.8202526,33.0871579 41.9039158,34.0023158 40.7738947,34.0023158 C39.6438737,34.0023158 38.7281263,33.0871579 38.7275368,31.9571368 L38.7275368,31.9571368 L38.7275368,28.4777684 L38.7275368,26.8413895 L38.7275368,23.3617263 L38.7275368,23.3617263 C38.7281263,22.232 39.6435789,21.3162526 40.7738947,21.3162526 C41.9039158,21.3162526 42.8202526,22.232 42.8202526,23.3617263 L42.8202526,26.8413895 L42.8202526,26.8413895 Z" id="Shape" fill="url(#linearGradient-1)"></path>
                    </g>
                </g>
            </g>
        </g>
    </g>
</svg>
