<?xml version="1.0" encoding="UTF-8"?>
<svg width="56px" height="56px" viewBox="0 0 56 56" version="1.1" xmlns="http://www.w3.org/2000/svg" xmlns:xlink="http://www.w3.org/1999/xlink">
    <title>Unreal Icon</title>
    <defs>
        <linearGradient x1="-7.79188368%" y1="-11.5375%" x2="106.873372%" y2="107.156875%" id="linearGradient-1">
            <stop stop-color="#1DE9B6" offset="0%"></stop>
            <stop stop-color="#2979FF" offset="100%"></stop>
        </linearGradient>
    </defs>
    <g id="Designs" stroke="none" stroke-width="1" fill="none" fill-rule="evenodd">
        <g id="05_Developers" transform="translate(-1000.000000, -892.000000)" fill="url(#linearGradient-1)">
            <g id="SDKs" transform="translate(40.000000, 822.000000)">
                <g id="Unreal-SDK" transform="translate(960.000000, 70.000000)">
                    <g id="Unreal-Icon">
                        <path d="M0,28 C0,12.5360421 12.5360421,0 28,0 C43.4639579,0 56,12.5360421 56,28 C56,43.4639579 43.4639579,56 28,56 C12.5360421,56 0,43.4639579 0,28 Z M3.10235656,28 C3.10235656,41.8071429 14.2493852,53 27.9998975,53 C41.7506148,53 52.897541,41.8071429 52.897541,28 C52.897541,14.1927551 41.7506148,3 27.9998975,3 C14.2493852,3 3.10235656,14.1927551 3.10235656,28 Z M11.1696721,44.8997959 C6.67397541,40.3856122 4.19815574,34.3838776 4.19815574,28 C4.19815574,21.6162245 6.67397541,15.6142857 11.1696721,11.1004082 C15.6650615,6.58622449 21.6423156,4.10030612 27.9998975,4.10030612 C34.3576844,4.10030612 40.3349385,6.58622449 44.8303279,11.1004082 C49.3260246,15.6142857 51.8018443,21.6162245 51.8018443,28 C51.8018443,34.3838776 49.3260246,40.3856122 44.8303279,44.8997959 C40.3349385,49.4137755 34.3576844,51.8997959 27.9998975,51.8997959 C21.6423156,51.8997959 15.6650615,49.4137755 11.1696721,44.8997959 Z M38.892623,35.3987449 C37.9939549,35.3943571 37.6410861,34.8688469 37.6410861,34.8688469 C37.592623,34.6248673 37.5090164,31.0984388 37.4792008,27.5701735 C37.4485656,23.9147653 37.4755123,20.2567041 37.6596311,20.2456837 C38.6959016,18.3118061 42.002459,14.4120102 42.002459,14.4120102 C35.8276639,15.6223163 32.4599385,19.6452755 32.4599385,19.6452755 C31.466291,18.8662959 29.4375,18.9959898 29.4375,18.9959898 C30.3869877,19.5154796 31.3369877,21.0293571 31.3369877,22.2832347 L31.3369877,34.6094592 C31.3369877,34.6094592 29.2645492,36.4255816 27.6668033,36.4255816 C26.7223361,36.4255816 26.1400615,35.911602 25.8216189,35.4912959 C25.6017418,35.2004796 25.5076844,34.9549694 25.5076844,34.9549694 L25.5076844,19.7311939 C25.3116803,19.8721122 25.0332992,19.9898673 24.7471311,19.9882347 C24.4076844,19.9867041 24.0566598,19.8175204 23.8180328,19.3198673 C23.6380123,18.9453776 23.5218238,18.3847653 23.5218238,17.5688469 C23.5218238,14.7580306 26.7170082,12.8979286 26.7170082,12.8979286 C22.6581967,13.9792551 18.9017418,16.0551735 13.8927254,21.7641531 C8.88422131,27.4734388 9.83411885,32.1874184 9.83411885,32.1874184 C9.83411885,32.1874184 11.2157787,28.9434388 14.5405738,25.5270102 C16.1152664,23.9086429 17.292623,23.3674184 18.0960041,23.3653776 C18.9890369,23.3628265 19.4197746,24.0269082 19.4197746,24.6187449 L19.4197746,36.2094592 C19.4197746,37.3526224 18.6786885,37.6025204 17.9954918,37.5900714 C17.4125,37.5792551 16.8723361,37.3778265 16.8723361,37.3778265 C20.2832992,42.3078265 28.4441598,42.9999694 28.4441598,42.9999694 L32.0279713,39.1938469 L32.1119877,39.2655816 L35.3957992,42.0479286 C41.3976434,38.5019082 44.2909836,31.9277245 44.2909836,31.9277245 C41.6132172,34.7469082 39.9058402,35.404051 38.892623,35.3987449 Z" id="Combined-Shape"></path>
                    </g>
                </g>
            </g>
        </g>
    </g>
</svg>
