<svg xmlns="http://www.w3.org/2000/svg" width="34" height="19" viewBox="0 0 34 19">
    <g fill="#6D6D6D" fill-rule="nonzero">
        <path d="M31.17 2.019l-3.21-.472v16.127l2.331-.345v-5.267s.426-.072.671-.136C32.014 11.663 34 10.428 34 6.96c0-4.659-2.467-4.886-2.82-4.94h-.01zm.908 4.767c0 1.816-.826 2.343-1.551 2.434h-.236V6.768 4.316h.254c.716.073 1.533.59 1.533 2.434v.036zM2.015 12.145v-.473l-2.015.1v.61c.074 1.046.506 1.82 1.131 1.82.874.008.884-1.474.884-2.057zm10.863-.536V1.365L9.392.983v10.535c0 1.464.745 2.729 1.674 2.729 1.444.036 1.812-1.72 1.812-2.638zm9.337-3.048h-.064L19.897.519 16.153 0v11.436c0 2.647-.846 7.114-4.158 7.478a8.157 8.157 0 0 0 4.6-.664c2.318-1.028 3.044-4.094 3.044-6.623V9.316l2.015 6.186.984-.09 1.84-5.941v8.815l2.364-.345V1.483l-2.594-.346-2.033 7.424zM6.651 1.892l-2.254-.218v10.317c0 1.5-.101 5.276-3.256 5.276 0 0 5.004 1.147 6.568-1.182a10.366 10.366 0 0 1-1.058-4.859V1.892z"/>
    </g>
</svg>
