<svg xmlns="http://www.w3.org/2000/svg" width="34" height="22" viewBox="0 0 34 22">
    <g fill="#FF6E40" fill-rule="nonzero">
        <path d="M29.626 22h-6.08c-1.61 0-3.09-.896-3.85-2.33l-1.713-3.224a1.11 1.11 0 0 0-.995-.594 1.11 1.11 0 0 0-.995.594L14.28 19.67A4.362 4.362 0 0 1 10.437 22H4.374a4.346 4.346 0 0 1-3.095-1.292A4.435 4.435 0 0 1 0 17.582V4.412C0 3.24.461 2.118 1.281 1.29A4.346 4.346 0 0 1 4.374 0h25.252a4.346 4.346 0 0 1 3.093 1.29A4.435 4.435 0 0 1 34 4.412v13.17a4.435 4.435 0 0 1-1.28 3.126A4.346 4.346 0 0 1 29.627 22zm-12.62-7.581a2.528 2.528 0 0 1 2.237 1.35l1.713 3.228a2.94 2.94 0 0 0 2.59 1.582h6.063c1.625 0 2.943-1.331 2.943-2.973V4.412c0-1.642-1.318-2.973-2.943-2.973H4.374c-1.626 0-2.944 1.331-2.944 2.973v13.17c0 1.642 1.318 2.973 2.944 2.973h6.063a2.94 2.94 0 0 0 2.613-1.581l1.713-3.223A2.528 2.528 0 0 1 17 14.4l.006.018z"/>
        <path d="M9.325 15.4C6.93 15.4 4.99 13.43 4.99 11c0-2.43 1.94-4.4 4.334-4.4 2.394 0 4.334 1.97 4.334 4.4-.003 2.429-1.942 4.397-4.334 4.4zm0-7.389c-1.613 0-2.92 1.328-2.92 2.965 0 1.638 1.307 2.965 2.92 2.965s2.92-1.327 2.92-2.965c0-1.637-1.307-2.965-2.92-2.965zM24.669 15.4c-2.393-.003-4.33-1.975-4.328-4.404.002-2.43 1.943-4.397 4.336-4.396 2.393.001 4.332 1.97 4.332 4.4-.003 2.431-1.945 4.4-4.34 4.4zm0-7.389c-1.613 0-2.92 1.328-2.92 2.965 0 1.638 1.307 2.965 2.92 2.965s2.92-1.327 2.92-2.965c0-1.637-1.307-2.965-2.92-2.965z"/>
    </g>
</svg>
